<svg width="49" height="55" viewBox="0 0 49 55" fill="none" xmlns="http://www.w3.org/2000/svg">
<path id="Vector" d="M24.4012 0.540527C11.3302 0.540527 0.743347 1.95425 0.743347 11.8503V38.7109C0.743347 44.1679 5.38619 48.607 11.0936 48.607L7.69283 51.8585C7.48848 52.0578 7.35041 52.3105 7.29602 52.5848C7.24163 52.859 7.27337 53.1425 7.38721 53.3995C7.50106 53.6565 7.69194 53.8755 7.93578 54.029C8.17962 54.1825 8.46551 54.2635 8.75743 54.2618H40.0745C41.4052 54.2618 42.0558 52.735 41.1095 51.8585L37.7087 48.607C43.4161 48.607 48.059 44.1679 48.059 38.7109V11.8503C48.059 1.95425 37.4721 0.540527 24.4012 0.540527ZM11.0936 42.9521C8.63914 42.9521 6.6578 41.0577 6.6578 38.7109C6.6578 36.3642 8.63914 34.4698 11.0936 34.4698C13.5481 34.4698 15.5295 36.3642 15.5295 38.7109C15.5295 41.0577 13.5481 42.9521 11.0936 42.9521ZM21.4439 25.9875H6.6578V11.8503H21.4439V25.9875ZM37.7087 42.9521C35.2542 42.9521 33.2728 41.0577 33.2728 38.7109C33.2728 36.3642 35.2542 34.4698 37.7087 34.4698C40.1632 34.4698 42.1445 36.3642 42.1445 38.7109C42.1445 41.0577 40.1632 42.9521 37.7087 42.9521ZM42.1445 25.9875H27.3584V11.8503H42.1445V25.9875Z" fill="#45A8B4"/>
</svg>
