<svg width="32" height="32" viewBox="0 0 32 32" fill="none" xmlns="http://www.w3.org/2000/svg">
<path d="M29.9467 7.99998C28.92 8.46665 27.8133 8.77331 26.6667 8.91998C27.84 8.21331 28.7467 7.09331 29.1733 5.74665C28.0667 6.41331 26.84 6.87998 25.5467 7.14665C24.4933 5.99998 23.0133 5.33331 21.3333 5.33331C18.2 5.33331 15.64 7.89331 15.64 11.0533C15.64 11.5066 15.6933 11.9466 15.7867 12.36C11.04 12.12 6.81333 9.83998 4 6.38665C3.50666 7.22665 3.22666 8.21331 3.22666 9.25331C3.22666 11.24 4.22666 13 5.77333 14C4.82666 14 3.94666 13.7333 3.17333 13.3333V13.3733C3.17333 16.1466 5.14666 18.4666 7.76 18.9866C6.92111 19.2172 6.04005 19.2492 5.18666 19.08C5.54881 20.2166 6.25805 21.2112 7.21468 21.9239C8.17132 22.6366 9.32726 23.0316 10.52 23.0533C8.49822 24.654 5.99201 25.5192 3.41333 25.5066C2.96 25.5066 2.50666 25.48 2.05333 25.4266C4.58666 27.0533 7.6 28 10.8267 28C21.3333 28 27.1067 19.28 27.1067 11.72C27.1067 11.4666 27.1067 11.2266 27.0933 10.9733C28.2133 10.1733 29.1733 9.15998 29.9467 7.99998Z" fill="white"/>
</svg>
