<svg width="73" height="57" viewBox="0 0 73 57" fill="none" xmlns="http://www.w3.org/2000/svg">
<path id="Vector" d="M32.5957 5.33485C32.5957 2.39611 35.0197 0.0118408 38.0075 0.0118408H48.8309C51.8186 0.0118408 54.2426 2.39611 54.2426 5.33485V21.3039H58.7524V13.3194C58.7524 11.8444 59.9588 10.6579 61.4583 10.6579C62.9578 10.6579 64.1641 11.8444 64.1641 13.3194V21.3039H66.87C69.8577 21.3039 72.2817 23.6881 72.2817 26.6269V51.4676C72.2817 54.4063 69.8577 56.7906 66.87 56.7906H38.0075C35.0197 56.7906 32.5957 54.4063 32.5957 51.4676V5.33485ZM39.8114 8.88352V12.4322C39.8114 13.4081 40.6231 14.2065 41.6153 14.2065H45.2231C46.2152 14.2065 47.027 13.4081 47.027 12.4322V8.88352C47.027 7.90764 46.2152 7.10919 45.2231 7.10919H41.6153C40.6231 7.10919 39.8114 7.90764 39.8114 8.88352ZM41.6153 17.7552C40.6231 17.7552 39.8114 18.5537 39.8114 19.5295V23.0782C39.8114 24.0541 40.6231 24.8526 41.6153 24.8526H45.2231C46.2152 24.8526 47.027 24.0541 47.027 23.0782V19.5295C47.027 18.5537 46.2152 17.7552 45.2231 17.7552H41.6153ZM39.8114 30.1756V33.7242C39.8114 34.7001 40.6231 35.4986 41.6153 35.4986H45.2231C46.2152 35.4986 47.027 34.7001 47.027 33.7242V30.1756C47.027 29.1997 46.2152 28.4012 45.2231 28.4012H41.6153C40.6231 28.4012 39.8114 29.1997 39.8114 30.1756ZM59.6544 28.4012C58.6622 28.4012 57.8504 29.1997 57.8504 30.1756V33.7242C57.8504 34.7001 58.6622 35.4986 59.6544 35.4986H63.2622C64.2543 35.4986 65.0661 34.7001 65.0661 33.7242V30.1756C65.0661 29.1997 64.2543 28.4012 63.2622 28.4012H59.6544ZM57.8504 40.8216V44.3703C57.8504 45.3461 58.6622 46.1446 59.6544 46.1446H63.2622C64.2543 46.1446 65.0661 45.3461 65.0661 44.3703V40.8216C65.0661 39.8457 64.2543 39.0472 63.2622 39.0472H59.6544C58.6622 39.0472 57.8504 39.8457 57.8504 40.8216ZM25.3801 17.7552C25.3801 18.4206 25.2673 18.9751 25.1546 19.5295C27.4095 21.0821 28.9879 23.7436 28.9879 26.6269C28.9879 31.6172 24.9291 35.4986 19.9684 35.4986H18.1645V53.2419C18.1645 55.2381 16.4733 56.7906 14.5566 56.7906C12.5272 56.7906 10.9488 55.2381 10.9488 53.2419V35.4986H9.14491C4.07142 35.4986 0.125366 31.6172 0.125366 26.6269C0.125366 23.7436 1.59104 21.0821 3.84593 19.5295C3.73318 18.9751 3.73318 18.4206 3.73318 17.7552C3.73318 11.8777 8.46844 7.10919 14.5566 7.10919C20.5321 7.10919 25.3801 11.8777 25.3801 17.7552Z" fill="#45A8B4"/>
</svg>
