<svg width="51" height="53" viewBox="0 0 51 53" fill="none" xmlns="http://www.w3.org/2000/svg">
<path id="Vector" fill-rule="evenodd" clip-rule="evenodd" d="M37.2982 1.33621C37.4925 1.02423 37.7749 0.776848 38.1097 0.625317C38.4445 0.473786 38.8168 0.424909 39.1793 0.484862L48.7374 2.07974C49.2234 2.1608 49.6574 2.43149 49.9439 2.83232C50.2304 3.23315 50.346 3.73133 50.2654 4.21739L48.6742 13.7792C48.6135 14.1417 48.4467 14.478 48.1949 14.7457C47.9431 15.0134 47.6176 15.2004 47.2595 15.2832C46.9015 15.3659 46.5269 15.3407 46.1832 15.2106C45.8394 15.0806 45.542 14.8515 45.3284 14.5525L42.7483 10.9464L29.4614 19.4375C28.8948 19.8001 28.2162 19.9456 27.5508 19.8472C26.8853 19.7488 26.2779 19.4132 25.8404 18.9021L18.4311 10.24L4.5754 17.3593C3.91775 17.6975 3.15269 17.7606 2.44852 17.5347C1.74435 17.3088 1.15876 16.8124 0.820565 16.1548C0.482372 15.4971 0.419282 14.7321 0.645174 14.0279C0.871065 13.3237 1.36743 12.7381 2.02509 12.4L17.8437 4.26944C18.4022 3.98253 19.0412 3.89251 19.6572 4.01396C20.2732 4.1354 20.8301 4.46121 21.2379 4.93862L28.5022 13.4335L39.5065 6.39965L37.3614 3.39951C37.1482 3.10033 37.0283 2.74467 37.0171 2.37744C37.0058 2.0102 37.1037 1.64787 37.2982 1.33621ZM12.9624 19.5899L2.17379 25.7612C1.74759 26.0047 1.3932 26.3563 1.14645 26.7806C0.8997 27.2049 0.769331 27.6869 0.768518 28.1777V49.5542C0.768518 51.0933 2.01765 52.3425 3.55676 52.3425H12.9624V19.5899ZM17.6095 52.3425H31.2459V27.0178L25.1155 30.0811L18.9888 19.3594C18.6787 18.8147 18.1941 18.3904 17.6132 18.1549L17.6095 52.3425ZM46.3098 52.3425H35.8929V24.6942L45.0644 20.1067C45.4895 19.8944 45.9618 19.7944 46.4364 19.8159C46.911 19.8375 47.3723 19.98 47.7764 20.2299C48.1805 20.4798 48.514 20.8288 48.7453 21.2438C48.9766 21.6588 49.098 22.1261 49.0981 22.6012V49.5542C49.0981 50.2937 48.8043 51.0029 48.2814 51.5258C47.7585 52.0487 47.0493 52.3425 46.3098 52.3425Z" fill="#45A8B4"/>
</svg>
