<svg width="46" height="60" viewBox="0 0 46 60" fill="none" xmlns="http://www.w3.org/2000/svg">
<path id="Vector" d="M2.63619 26.4645H6.92346V54.0211H13.3562V30.4012H19.789V54.0211H26.2205V30.4012H32.6545V54.0211H39.0872V26.4645H43.3732C44.5579 26.4645 45.5187 25.5837 45.5187 24.4962C45.5187 23.8393 45.1644 23.2611 44.6244 22.9043L44.6281 22.9006L44.5961 22.8822L44.5407 22.8489L24.0762 12.2581V9.15551C27.8554 10.8926 30.9666 7.9007 35.8678 9.69926V2.84578C30.9642 1.04722 27.8542 4.03662 24.0762 2.3008V1.86039C24.0762 1.3154 23.5977 0.876221 23.0047 0.876221C22.4118 0.876221 21.9344 1.3154 21.9344 1.86039V12.2581L1.46996 22.8465L1.4146 22.8797L1.38384 22.9006V22.9043C0.846243 23.2611 0.493173 23.8405 0.493173 24.4962C0.491943 25.5837 1.45273 26.4645 2.63619 26.4645ZM4.77921 55.9907L0.491943 59.9261H45.52L41.2302 55.9907H4.77921Z" fill="#45A8B4"/>
</svg>
