<svg width="58" height="61" viewBox="0 0 58 61" fill="none" xmlns="http://www.w3.org/2000/svg">
<g id="Vector">
<path fill-rule="evenodd" clip-rule="evenodd" d="M21.1447 8.60397C21.1447 6.51903 21.9729 4.51947 23.4472 3.0452C24.9215 1.57092 26.921 0.742676 29.006 0.742676C31.0909 0.742676 33.0905 1.57092 34.5647 3.0452C36.039 4.51947 36.8673 6.51903 36.8673 8.60397C36.8673 10.6889 36.039 12.6885 34.5647 14.1627C33.0905 15.637 31.0909 16.4653 29.006 16.4653C26.921 16.4653 24.9215 15.637 23.4472 14.1627C21.9729 12.6885 21.1447 10.6889 21.1447 8.60397Z" fill="#45A8B4"/>
<path d="M18.2088 30.2554L11.9913 28.1829C10.9259 27.8315 10.0361 27.0846 9.50522 26.0964C8.97435 25.1082 8.84292 23.954 9.13805 22.8717C9.43318 21.7894 10.1324 20.8617 11.0914 20.2798C12.0505 19.6978 13.1962 19.5061 14.2925 19.7441L19.7182 20.9076L20.3185 21.0334C26.2518 22.2619 32.3782 22.2191 38.2937 20.9076L43.7166 19.7441C44.8136 19.5037 45.961 19.6938 46.9218 20.2753C47.8826 20.8568 48.5833 21.7851 48.8791 22.8685C49.1749 23.9519 49.0432 25.1075 48.5113 26.0966C47.9793 27.0856 47.0877 27.8325 46.0207 28.1829L39.8031 30.2554C39.0513 30.507 38.6768 30.6328 38.3938 30.8071C37.9227 31.0976 37.5461 31.5185 37.3097 32.0189C37.0732 32.5192 36.987 33.0774 37.0616 33.6258C37.1074 33.9545 37.2503 34.3233 37.5333 35.0637L41.0981 44.3314C41.4815 45.3226 41.476 46.4222 41.0825 47.4095C40.6891 48.3967 39.9369 49.1987 38.9768 49.6545C38.0167 50.1104 36.9198 50.1862 35.9061 49.867C34.8924 49.5478 34.0369 48.857 33.5112 47.9333L29.006 40.0492L24.5007 47.9305C23.9751 48.8542 23.1196 49.5449 22.1059 49.8642C21.0921 50.1834 19.9952 50.1075 19.0351 49.6517C18.075 49.1959 17.3228 48.3939 16.9294 47.4066C16.536 46.4193 16.5304 45.3198 16.9139 44.3286L20.4786 35.0637C20.7645 34.3233 20.9045 33.9545 20.9503 33.6258C21.0249 33.0774 20.9387 32.5192 20.7023 32.0189C20.4658 31.5185 20.0892 31.0976 19.6181 30.8071C19.3351 30.6328 18.9607 30.507 18.2088 30.2554Z" fill="#45A8B4"/>
<path d="M29.006 60.0597C44.7943 60.0597 57.5925 54.2995 57.5925 47.1958C57.5925 42.2732 51.4464 37.9966 42.4245 35.8326L45.1002 42.7906C47.2413 48.3593 43.1334 54.3396 37.1674 54.3396C35.6694 54.3406 34.1978 53.9452 32.9019 53.1936C31.6061 52.442 30.5322 51.361 29.7892 50.0602L29.006 48.688L28.2227 50.0602C27.4806 51.3606 26.4077 52.4417 25.113 53.1938C23.8182 53.9459 22.3476 54.3421 20.8502 54.3424C14.8842 54.3424 10.7735 48.3593 12.9146 42.7906L15.5903 35.8326C6.56268 37.9966 0.419434 42.2732 0.419434 47.1958C0.419434 54.2995 13.2176 60.0597 29.006 60.0597Z" fill="#45A8B4"/>
</g>
</svg>
