<svg width="46" height="45" viewBox="0 0 46 45" fill="none" xmlns="http://www.w3.org/2000/svg">
<path id="Vector" fill-rule="evenodd" clip-rule="evenodd" d="M30.707 1.51437C31.5943 0.627335 32.7976 0.129028 34.0522 0.129028C35.3069 0.129028 36.5101 0.627335 37.3974 1.51437L44.0902 8.20716C44.9773 9.09446 45.4756 10.2977 45.4756 11.5524C45.4756 12.807 44.9773 14.0103 44.0902 14.8976L37.3974 21.5904C36.5101 22.4774 35.3069 22.9757 34.0522 22.9757C32.7976 22.9757 31.5943 22.4774 30.707 21.5904L24.0142 14.8976C23.1272 14.0103 22.6289 12.807 22.6289 11.5524C22.6289 10.2977 23.1272 9.09446 24.0142 8.20716L30.707 1.51437ZM15.126 2.08925C16.3809 2.08925 17.5843 2.58775 18.4717 3.47509C19.359 4.36243 19.8575 5.56593 19.8575 6.82081V16.2839C19.8575 17.5388 19.359 18.7423 18.4717 19.6297C17.5843 20.517 16.3809 21.0155 15.126 21.0155H5.66284C4.40795 21.0155 3.20446 20.517 2.31712 19.6297C1.42978 18.7423 0.931274 17.5388 0.931274 16.2839V6.82081C0.931274 5.56593 1.42978 4.36243 2.31712 3.47509C3.20446 2.58775 4.40795 2.08925 5.66284 2.08925H15.126ZM43.5153 30.4786C43.5153 29.2237 43.0168 28.0203 42.1295 27.1329C41.2422 26.2456 40.0387 25.7471 38.7838 25.7471H29.3207C28.0658 25.7471 26.8623 26.2456 25.9749 27.1329C25.0876 28.0203 24.5891 29.2237 24.5891 30.4786V39.9418C24.5891 41.1966 25.0876 42.4001 25.9749 43.2875C26.8623 44.1748 28.0658 44.6733 29.3207 44.6733H38.7838C40.0387 44.6733 41.2422 44.1748 42.1295 43.2875C43.0168 42.4001 43.5153 41.1966 43.5153 39.9418V30.4786ZM15.126 25.7471C16.3809 25.7471 17.5843 26.2456 18.4717 27.1329C19.359 28.0203 19.8575 29.2237 19.8575 30.4786V39.9418C19.8575 41.1966 19.359 42.4001 18.4717 43.2875C17.5843 44.1748 16.3809 44.6733 15.126 44.6733H5.66284C4.40795 44.6733 3.20446 44.1748 2.31712 43.2875C1.42978 42.4001 0.931274 41.1966 0.931274 39.9418V30.4786C0.931274 29.2237 1.42978 28.0203 2.31712 27.1329C3.20446 26.2456 4.40795 25.7471 5.66284 25.7471H15.126Z" fill="#45A8B4"/>
</svg>
