<svg width="32" height="32" viewBox="0 0 32 32" fill="none" xmlns="http://www.w3.org/2000/svg">
<path d="M13.3333 20L20.2533 16L13.3333 12V20ZM28.7467 9.56002C28.92 10.1867 29.04 11.0267 29.12 12.0934C29.2133 13.16 29.2533 14.08 29.2533 14.88L29.3333 16C29.3333 18.92 29.12 21.0667 28.7467 22.44C28.4133 23.64 27.64 24.4134 26.44 24.7467C25.8133 24.92 24.6667 25.04 22.9067 25.12C21.1733 25.2134 19.5867 25.2534 18.12 25.2534L16 25.3334C10.4133 25.3334 6.93332 25.12 5.55999 24.7467C4.35999 24.4134 3.58666 23.64 3.25332 22.44C3.07999 21.8134 2.95999 20.9734 2.87999 19.9067C2.78666 18.84 2.74666 17.92 2.74666 17.12L2.66666 16C2.66666 13.08 2.87999 10.9334 3.25332 9.56002C3.58666 8.36002 4.35999 7.58669 5.55999 7.25335C6.18666 7.08002 7.33332 6.96002 9.09332 6.88002C10.8267 6.78669 12.4133 6.74669 13.88 6.74669L16 6.66669C21.5867 6.66669 25.0667 6.88002 26.44 7.25335C27.64 7.58669 28.4133 8.36002 28.7467 9.56002Z" fill="white"/>
</svg>
